<svg width="270" height="270" viewBox="0 0 270 270" fill="none" xmlns="http://www.w3.org/2000/svg">
<path d="M169.312 56.25C180.301 58.3939 190.399 63.7679 198.316 71.6843C206.232 79.6007 211.606 89.6992 213.75 100.687M169.312 11.25C192.142 13.7862 213.43 24.0095 229.683 40.2413C245.935 56.4732 256.185 77.7489 258.75 100.575M247.5 190.35V224.1C247.513 227.233 246.871 230.334 245.616 233.205C244.361 236.076 242.52 238.653 240.211 240.771C237.902 242.889 235.176 244.502 232.208 245.505C229.24 246.509 226.095 246.882 222.975 246.6C188.357 242.838 155.104 231.009 125.887 212.063C98.7055 194.79 75.66 171.744 58.3875 144.563C39.3747 115.214 27.5427 81.7987 23.85 47.025C23.5688 43.914 23.9386 40.7786 24.9356 37.8183C25.9326 34.858 27.5352 32.1378 29.6411 29.8307C31.747 27.5237 34.3103 25.6805 37.1676 24.4184C40.025 23.1563 43.1138 22.5029 46.2375 22.5H79.9875C85.4472 22.4463 90.7401 24.3796 94.8798 27.9397C99.0195 31.4999 101.723 36.4438 102.487 41.85C103.912 52.6507 106.554 63.2557 110.362 73.4625C111.876 77.4891 112.204 81.8653 111.306 86.0724C110.409 90.2795 108.325 94.1413 105.3 97.2L91.0125 111.487C107.027 139.652 130.348 162.972 158.512 178.987L172.8 164.7C175.859 161.675 179.72 159.591 183.928 158.694C188.135 157.796 192.511 158.124 196.537 159.637C206.744 163.446 217.349 166.088 228.15 167.513C233.615 168.283 238.606 171.036 242.173 175.247C245.741 179.458 247.637 184.833 247.5 190.35Z" stroke="#D9D9D9" stroke-width="17" stroke-linecap="round" stroke-linejoin="round"/>
</svg>
