<svg width="22" height="22" viewBox="0 0 22 22" fill="none" xmlns="http://www.w3.org/2000/svg">
<g clip-path="url(#clip0_561_538)">
<path d="M16.1332 10.2671H5.86657C5.05655 10.2671 4.3999 10.9237 4.3999 11.7338V16.8671C4.3999 17.6771 5.05655 18.3338 5.86657 18.3338H16.1332C16.9433 18.3338 17.5999 17.6771 17.5999 16.8671V11.7338C17.5999 10.9237 16.9433 10.2671 16.1332 10.2671Z" stroke="white" stroke-width="2" stroke-linecap="round" stroke-linejoin="round"/>
<path d="M7.33325 10.267V7.33366C7.33325 6.3612 7.71956 5.42857 8.40719 4.74093C9.09483 4.0533 10.0275 3.66699 10.9999 3.66699C11.9724 3.66699 12.905 4.0533 13.5926 4.74093C14.2803 5.42857 14.6666 6.3612 14.6666 7.33366V10.267" stroke="white" stroke-width="2" stroke-linecap="round" stroke-linejoin="round"/>
</g>
<defs>
<clipPath id="clip0_561_538">
<rect width="17.6" height="17.6" fill="white" transform="translate(2.19995 2.2002)"/>
</clipPath>
</defs>
</svg>
